<svg width="38" height="26" viewBox="0 0 38 26" fill="none" xmlns="http://www.w3.org/2000/svg">
<path fill-rule="evenodd" clip-rule="evenodd" d="M11.7559 17.4438H9.5721L7.93452 11.1963C7.85679 10.9089 7.69175 10.6549 7.44899 10.5351C6.84315 10.2342 6.17555 9.99472 5.44727 9.87393V9.6334H8.96519C9.45071 9.6334 9.81486 9.99471 9.87555 10.4143L10.7252 14.9208L12.908 9.6334H15.0311L11.7559 17.4438ZM16.2448 17.4438H14.1824L15.8807 9.6334H17.9431L16.2448 17.4438ZM20.6114 11.797C20.6721 11.3763 21.0362 11.1358 21.4611 11.1358C22.1287 11.0754 22.8559 11.1962 23.4628 11.496L23.8269 9.81444C23.22 9.57391 22.5524 9.45312 21.9466 9.45312C19.9449 9.45312 18.4883 10.535 18.4883 12.0365C18.4883 13.1787 19.52 13.7785 20.2483 14.1398C21.0362 14.5 21.3397 14.7406 21.279 15.1008C21.279 15.6412 20.6721 15.8818 20.0662 15.8818C19.338 15.8818 18.6097 15.7016 17.9431 15.4007L17.579 17.0834C18.3073 17.3832 19.0952 17.504 19.8235 17.504C22.068 17.5634 23.4628 16.4826 23.4628 14.8603C23.4628 12.8174 20.6114 12.6976 20.6114 11.797ZM30.6807 17.4438L29.0431 9.6334H27.2841C26.92 9.6334 26.5558 9.87392 26.4345 10.2342L23.4021 17.4438H25.5252L25.9489 16.3026H28.5576L28.8003 17.4438H30.6807ZM27.5876 11.7365L28.1935 14.6801H26.4952L27.5876 11.7365Z" fill="#3C2380"/>
</svg>
