<svg width="47" height="32" viewBox="0 0 47 32" fill="none" xmlns="http://www.w3.org/2000/svg">
<g clip-path="url(#clip0_33_7756)">
<mask id="mask0_33_7756" style="mask-type:luminance" maskUnits="userSpaceOnUse" x="7" y="7" width="33" height="19">
<path d="M39.2929 7.37305H7.04297V25.7418H39.2929V7.37305Z" fill="#FFFFFF"/>
</mask>
<g mask="url(#mask0_33_7756)">
<path d="M7.04297 7.37305H7.40752V17.0526H7.04297V7.37305ZM7.77207 7.37305H8.13662V17.0526H7.77207V7.37305ZM9.96101 7.37305H10.3256V17.0526H9.96101V7.37305ZM17.057 7.37305H17.4215V17.0526H17.057V7.37305ZM19.4293 7.37305H19.7938V17.0526H19.4293V7.37305ZM21.7296 7.37305H22.0942V17.0526H21.7296V7.37305ZM22.3225 7.37305H22.687V17.0526H22.323L22.3225 7.37305ZM22.9162 7.37305H23.2807V17.0526H22.9162V7.37305ZM23.5834 7.37305H23.9479V17.0526H23.5835L23.5834 7.37305ZM24.2504 7.37305H24.615V17.0526H24.2504V7.37305ZM26.105 7.37305H26.4696V17.0526H26.1045L26.105 7.37305ZM30.7033 7.37305H31.0679V17.0526H30.7033V7.37305ZM35.4998 7.37305H35.8642V17.0526H35.4997L35.4998 7.37305ZM36.8117 7.37305H37.1763V17.0526H36.8117V7.37305ZM37.7602 7.37305H38.1248V17.0526H37.7602V7.37305ZM38.3438 7.37305H38.7084V17.0526H38.3438V7.37305ZM12.3685 7.37305H12.733V17.0526H12.3685V7.37305ZM8.72058 7.37305H9.37705V17.0526H8.72058V7.37305ZM13.0527 7.37305H13.709V17.0526H13.0527V7.37305ZM16.0945 7.37305H16.7508V17.0526H16.0945V7.37305ZM17.6518 7.37305H18.3081V17.0526H17.6518V7.37305ZM20.0992 7.37305H20.7555V17.0526H20.0992V7.37305ZM27.0767 7.37305H28.0976V17.0526H27.0767V7.37305ZM28.4103 7.37305H29.2121V17.0526H28.4094L28.4103 7.37305ZM29.8174 7.37305H30.4738V17.0526H29.8174V7.37305ZM31.6782 7.37305H32.7726V17.0526H31.6782V7.37305ZM33.8213 7.37305H34.9158V17.0526H33.8213V7.37305ZM10.6905 7.37305H12.0032V17.0526H10.6905V7.37305ZM14.0929 7.37305H15.1138V17.0526H14.0929V7.37305Z" fill="#3C2380"/>
<path d="M7.51562 25.648V20.1077H9.59461C9.94202 20.0943 10.2886 20.1515 10.6133 20.2757C10.8622 20.3821 11.072 20.563 11.2138 20.7935C11.3544 21.0117 11.4299 21.2654 11.4314 21.5249C11.4314 21.7615 11.3646 21.9934 11.2387 22.1937C11.0968 22.4144 10.8949 22.59 10.6566 22.6998C10.9624 22.7784 11.2341 22.9548 11.4304 23.2021C11.612 23.4436 11.7071 23.7391 11.7004 24.0412C11.7026 24.2919 11.6464 24.5397 11.5363 24.765C11.4433 24.967 11.3035 25.144 11.1285 25.2812C10.9463 25.4119 10.7401 25.5053 10.5217 25.5558C10.2288 25.623 9.92885 25.6541 9.62844 25.6487L7.51562 25.648ZM8.24949 22.436H9.4476C9.68159 22.4451 9.91577 22.4235 10.1441 22.3717C10.3113 22.3293 10.4595 22.2323 10.5652 22.0961C10.6637 21.9545 10.7134 21.7847 10.7069 21.6124C10.7102 21.4413 10.6643 21.2728 10.5746 21.1271C10.489 20.9888 10.3558 20.8864 10.2002 20.8392C9.92393 20.7757 9.64041 20.7496 9.35723 20.7617H8.24973L8.24949 22.436ZM8.24949 24.9944H9.62868C9.79553 24.9988 9.96245 24.9901 10.1279 24.9682C10.2776 24.9439 10.4212 24.8914 10.5512 24.8133C10.67 24.7366 10.7664 24.6298 10.8307 24.5038C10.9057 24.3607 10.9435 24.201 10.9406 24.0394C10.9458 23.8467 10.8903 23.6571 10.782 23.4975C10.6751 23.3444 10.5201 23.2314 10.3416 23.1764C10.0776 23.105 9.80446 23.0737 9.53121 23.0836H8.24949V24.9944ZM12.7719 22.9503C12.7254 22.1608 12.9914 21.3847 13.5123 20.7897C13.7579 20.5318 14.0553 20.329 14.385 20.1945C14.7147 20.06 15.0691 19.9969 15.425 20.0094C15.9109 20.0028 16.3893 20.1297 16.808 20.3763C17.2151 20.6169 17.5418 20.9727 17.7469 21.3987C17.9681 21.8627 18.0785 22.3717 18.0697 22.8856C18.079 23.4081 17.9627 23.9252 17.7307 24.3934C17.52 24.8195 17.1837 25.1707 16.7671 25.3996C16.3553 25.6266 15.8921 25.7444 15.4218 25.7416C14.9298 25.7497 14.4453 25.6191 14.024 25.3647C13.6187 25.119 13.294 24.7601 13.0899 24.3322C12.8794 23.902 12.7706 23.4292 12.7719 22.9503ZM13.5281 22.9619C13.4966 23.5384 13.6909 24.1044 14.0698 24.54C14.2408 24.7272 14.4499 24.8755 14.683 24.975C14.9162 25.0745 15.1679 25.1228 15.4213 25.1166C15.6763 25.1231 15.9296 25.0743 16.1639 24.9737C16.3982 24.8731 16.608 24.7231 16.7788 24.5338C17.1611 24.0715 17.3525 23.4807 17.3137 22.8821C17.3239 22.4768 17.2471 22.0741 17.0885 21.701C16.9487 21.3792 16.7158 21.1067 16.4198 20.9185C16.1239 20.7326 15.7807 20.6361 15.4313 20.6406C15.1838 20.6369 14.9379 20.6822 14.7079 20.774C14.478 20.8658 14.2685 21.0022 14.0916 21.1754C13.8822 21.4198 13.7244 21.7039 13.6276 22.0107C13.5307 22.3175 13.4969 22.6417 13.5281 22.9619ZM19.2719 25.6484V20.1077H20.0049V24.9939H22.7332V25.648L19.2719 25.6484ZM23.9081 25.6484V20.1077H27.9143V20.7617H24.6411V22.459H27.7062V23.1091H24.6411V24.9946H28.0429V25.6487L23.9081 25.6484ZM30.7519 25.6484V20.7617H28.9256V20.1077H33.3172V20.7617H31.4844V25.648L30.7519 25.6484ZM33.9933 22.9503C33.9474 22.1606 34.2141 21.3847 34.7356 20.79C34.9812 20.5322 35.2786 20.3293 35.6082 20.1948C35.9379 20.0603 36.2923 19.9972 36.6481 20.0098C37.1341 20.0031 37.6125 20.1301 38.0312 20.3767C38.4383 20.6173 38.765 20.973 38.9701 21.3991C39.1914 21.8631 39.3018 22.3721 39.2929 22.886C39.3019 23.4085 39.1854 23.9256 38.9531 24.3938C38.7418 24.8206 38.4043 25.1721 37.9864 25.4007C37.5746 25.6277 37.1114 25.7455 36.6411 25.7428C36.1487 25.7509 35.664 25.62 35.2426 25.3651C34.838 25.119 34.5141 24.7602 34.3107 24.3326C34.1004 23.9022 33.9918 23.4293 33.9933 22.9503ZM34.7495 22.9619C34.718 23.5384 34.9124 24.1044 35.2913 24.54C35.4622 24.7272 35.6713 24.8755 35.9044 24.975C36.1376 25.0745 36.3894 25.1228 36.6428 25.1166C36.8984 25.1239 37.1526 25.0756 37.3878 24.9751C37.623 24.8746 37.8335 24.7243 38.005 24.5345C38.3873 24.0723 38.5786 23.4815 38.5398 22.8829C38.5477 22.4771 38.4685 22.0743 38.3075 21.7017C38.1677 21.38 37.9348 21.1075 37.6388 20.9192C37.3432 20.7335 37.0002 20.637 36.651 20.6414C36.4034 20.6376 36.1575 20.683 35.9276 20.7747C35.6976 20.8665 35.4881 21.003 35.3111 21.1762C35.1022 21.4206 34.9448 21.7046 34.8483 22.0113C34.7518 22.3179 34.7182 22.6419 34.7495 22.9619Z" fill="#3C2380"/>
</g>
</g>
<defs>
<clipPath id="clip0_33_7756">
<rect width="33" height="20" fill="white" transform="translate(6.5 6.5)"/>
</clipPath>
</defs>
</svg>
