<svg width="48" height="32" viewBox="0 0 48 32" fill="none" xmlns="http://www.w3.org/2000/svg">
<path d="M20.2031 21.1759V14.4054C20.2031 14.1092 20.2615 13.816 20.3748 13.5423C20.4882 13.2687 20.6544 13.0201 20.8638 12.8106C21.0733 12.6012 21.322 12.4351 21.5957 12.3219C21.8693 12.2086 22.1627 12.1503 22.4588 12.1504H24.4556C25.0522 12.1516 25.6239 12.3895 26.0453 12.8117C26.4667 13.234 26.7034 13.8062 26.7034 14.4028V15.8438C26.7034 16.4421 26.4657 17.0158 26.0427 17.4388C25.6197 17.8619 25.0459 18.0995 24.4477 18.0995H21.6235" stroke="#CAD7FA" stroke-width="0.492405" stroke-linecap="round" stroke-linejoin="round"/>
<path d="M27.2637 12.1484H28.129C28.3745 12.1484 28.61 12.246 28.7836 12.4196C28.9573 12.5932 29.0548 12.8287 29.0548 13.0743V18.1328" stroke="#CAD7FA" stroke-width="0.492405" stroke-linecap="round" stroke-linejoin="round"/>
<path d="M28.8683 11.3652L28.4756 10.9718C28.4523 10.9486 28.4339 10.9211 28.4213 10.8907C28.4087 10.8604 28.4023 10.8279 28.4023 10.7951C28.4023 10.7622 28.4087 10.7297 28.4213 10.6994C28.4339 10.6691 28.4523 10.6415 28.4756 10.6184L28.8683 10.2257C28.8915 10.2024 28.919 10.184 28.9493 10.1714C28.9797 10.1588 29.0122 10.1523 29.045 10.1523C29.0778 10.1523 29.1103 10.1588 29.1407 10.1714C29.171 10.184 29.1985 10.2024 29.2217 10.2257L29.6151 10.6184C29.6383 10.6415 29.6568 10.6691 29.6694 10.6994C29.6819 10.7297 29.6884 10.7622 29.6884 10.7951C29.6884 10.8279 29.6819 10.8604 29.6694 10.8907C29.6568 10.9211 29.6383 10.9486 29.6151 10.9718L29.2217 11.3652C29.1985 11.3884 29.171 11.4068 29.1407 11.4194C29.1103 11.432 29.0778 11.4385 29.045 11.4385C29.0122 11.4385 28.9797 11.432 28.9493 11.4194C28.919 11.4068 28.8915 11.3884 28.8683 11.3652Z" fill="#CAD7FA"/>
<path d="M30.7207 12.1445H31.5807C32.023 12.1446 32.4473 12.3203 32.7601 12.6331L34.7716 14.6438C34.8334 14.7059 34.9069 14.7552 34.9878 14.7888C35.0687 14.8224 35.1555 14.8397 35.2431 14.8397C35.3308 14.8397 35.4175 14.8224 35.4985 14.7888C35.5794 14.7552 35.6529 14.7059 35.7147 14.6438L37.7208 12.6404C37.8757 12.4855 38.0596 12.3626 38.2619 12.2788C38.4643 12.1949 38.6812 12.1518 38.9003 12.1518H39.5991" stroke="#CAD7FA" stroke-width="0.492405" stroke-linecap="round" stroke-linejoin="round"/>
<path d="M30.7207 18.089H31.5807C32.023 18.0889 32.4473 17.9132 32.7601 17.6004L34.7716 15.5903C34.8334 15.5282 34.9069 15.479 34.9878 15.4454C35.0687 15.4118 35.1555 15.3945 35.2431 15.3945C35.3308 15.3945 35.4175 15.4118 35.4985 15.4454C35.5794 15.479 35.6529 15.5282 35.7147 15.5903L37.7208 17.5931C37.8757 17.748 38.0596 17.8709 38.2619 17.9548C38.4643 18.0386 38.6812 18.0817 38.9003 18.0817H39.5991" stroke="#CAD7FA" stroke-width="0.492405" stroke-linecap="round" stroke-linejoin="round"/>
<path d="M15.0764 19.3744C14.864 19.3751 14.6537 19.3336 14.4575 19.2523C14.2613 19.1711 14.0832 19.0518 13.9335 18.9012L12.2835 17.2552C12.2253 17.1992 12.1476 17.168 12.0669 17.168C11.9861 17.168 11.9085 17.1992 11.8502 17.2552L10.1942 18.9105C10.0445 19.0611 9.86639 19.1804 9.67021 19.2617C9.47404 19.3429 9.2637 19.3844 9.05137 19.3837H8.72656L10.8159 21.4737C11.1294 21.787 11.5544 21.9629 11.9976 21.9629C12.4408 21.9629 12.8659 21.787 13.1794 21.4737L15.2747 19.3778L15.0764 19.3744Z" fill="#CAD7FA"/>
<path d="M9.052 13.5361C9.2643 13.5356 9.4746 13.5772 9.67076 13.6584C9.86691 13.7396 10.045 13.8589 10.1948 14.0093L11.8508 15.6653C11.9084 15.7227 11.9863 15.7549 12.0675 15.7549C12.1487 15.7549 12.2266 15.7227 12.2842 15.6653L13.9342 14.0153C14.084 13.8649 14.2621 13.7456 14.4582 13.6644C14.6544 13.5831 14.8647 13.5416 15.077 13.5421H15.2767L13.1814 11.4468C13.0262 11.2915 12.842 11.1683 12.6392 11.0843C12.4365 11.0003 12.2191 10.957 11.9996 10.957C11.7801 10.957 11.5628 11.0003 11.36 11.0843C11.1572 11.1683 10.973 11.2915 10.8178 11.4468L8.72852 13.5361H9.052Z" fill="#CAD7FA"/>
<path d="M17.0084 15.2765L15.7438 14.0119C15.7152 14.0233 15.6847 14.0294 15.6539 14.0299H15.0782C14.7784 14.0311 14.4914 14.1507 14.2794 14.3627L12.6268 16.0094C12.5533 16.0829 12.466 16.1413 12.37 16.181C12.2739 16.2208 12.1709 16.2411 12.067 16.241C11.8569 16.2414 11.6554 16.1583 11.5066 16.01L9.85056 14.354C9.63863 14.1421 9.35155 14.0225 9.05184 14.0212H8.3443C8.31509 14.0207 8.28622 14.0148 8.25911 14.0039L6.98781 15.2752C6.83255 15.4304 6.70938 15.6146 6.62534 15.8174C6.5413 16.0201 6.49805 16.2375 6.49805 16.457C6.49805 16.6765 6.5413 16.8938 6.62534 17.0966C6.70938 17.2994 6.83255 17.4836 6.98781 17.6387L8.25911 18.91C8.28622 18.8991 8.31509 18.8933 8.3443 18.8927H9.05184C9.35151 18.8913 9.63851 18.7717 9.85056 18.5599L11.5066 16.9039C11.6575 16.7599 11.8581 16.6796 12.0667 16.6796C12.2753 16.6796 12.4758 16.7599 12.6268 16.9039L14.2768 18.5539C14.4888 18.7657 14.7758 18.8853 15.0755 18.8867H15.6512C15.6821 18.8871 15.7126 18.8934 15.7411 18.9054L17.0057 17.6407C17.319 17.3272 17.495 16.9022 17.495 16.459C17.495 16.0158 17.319 15.5907 17.0057 15.2772" fill="#CAD7FA"/>
<path d="M21.923 20.5999C21.8183 20.6046 21.7143 20.6205 21.6129 20.6472V21.0599C21.6905 21.0872 21.7722 21.1009 21.8545 21.1005C22.0615 21.1005 22.1593 21.0306 22.1593 20.8482C22.1593 20.6771 22.0788 20.5999 21.923 20.5999ZM21.543 21.366V20.5507H21.6002L21.6062 20.586C21.7118 20.5577 21.8199 20.5403 21.929 20.534C22.0046 20.5288 22.0796 20.5505 22.1407 20.5953C22.1741 20.6278 22.1999 20.6674 22.216 20.7112C22.2321 20.7549 22.2382 20.8018 22.2339 20.8482C22.2378 20.9 22.2275 20.9519 22.2041 20.9983C22.1806 21.0446 22.1449 21.0836 22.1008 21.1111C22.0261 21.1479 21.9437 21.1662 21.8605 21.1644C21.7763 21.1639 21.6927 21.1511 21.6122 21.1264V21.366H21.543Z" fill="#CAD7FA"/>
<path d="M22.753 20.5987C22.546 20.5987 22.4541 20.6653 22.4541 20.8457C22.4541 21.026 22.5453 21.1012 22.753 21.1012C22.9606 21.1012 23.0512 21.0347 23.0512 20.855C23.0512 20.6753 22.96 20.5987 22.753 20.5987ZM23.0192 21.1012C22.9395 21.1505 22.8465 21.1738 22.753 21.1678C22.6595 21.1734 22.5666 21.1502 22.4867 21.1012C22.4495 21.0716 22.4202 21.0331 22.4016 20.9893C22.383 20.9455 22.3757 20.8977 22.3802 20.8503C22.376 20.8029 22.3835 20.7551 22.402 20.7112C22.4206 20.6673 22.4497 20.6287 22.4867 20.5987C22.5664 20.5495 22.6595 20.5262 22.753 20.5322C22.8465 20.5263 22.9395 20.5496 23.0192 20.5987C23.0562 20.6284 23.0853 20.6668 23.1039 20.7105C23.1225 20.7541 23.13 20.8017 23.1257 20.849C23.1303 20.8966 23.1229 20.9445 23.1043 20.9886C23.0857 21.0326 23.0565 21.0713 23.0192 21.1012Z" fill="#CAD7FA"/>
<path d="M23.9979 21.1478L23.7676 20.6526H23.7629L23.536 21.1478H23.4767L23.2305 20.5488H23.3077L23.512 21.05H23.5167L23.739 20.5488H23.8055L24.0338 21.05H24.0385L24.2382 20.5488H24.3127L24.0671 21.1478H23.9979Z" fill="#CAD7FA"/>
<path d="M24.7531 20.5966C24.5614 20.5966 24.4968 20.6818 24.4868 20.8049H25.0233C25.018 20.6685 24.9481 20.5966 24.7571 20.5966H24.7531ZM24.7571 21.1644C24.6689 21.1737 24.5804 21.15 24.5088 21.0978C24.4744 21.0663 24.4476 21.0274 24.4303 20.9841C24.413 20.9407 24.4057 20.8941 24.409 20.8475C24.4064 20.7992 24.4151 20.751 24.4344 20.7066C24.4537 20.6623 24.483 20.623 24.5201 20.5919C24.5898 20.5485 24.6711 20.5276 24.7531 20.532C24.8367 20.5269 24.92 20.5471 24.992 20.59C25.0786 20.6479 25.0952 20.7497 25.0952 20.8655H24.4822C24.4822 20.988 24.5248 21.0971 24.7564 21.0971C24.8602 21.0947 24.9635 21.0831 25.0652 21.0625V21.1251C24.9618 21.1467 24.8567 21.1592 24.7511 21.1624" fill="#CAD7FA"/>
<path d="M25.2949 21.1489V20.5498H25.3522L25.3582 20.5851C25.4539 20.5537 25.5536 20.5362 25.6544 20.5332H25.663V20.5998H25.6464C25.5507 20.6018 25.4559 20.6178 25.3648 20.647V21.1476L25.2949 21.1489Z" fill="#CAD7FA"/>
<path d="M26.0684 20.5985C25.8767 20.5985 25.8114 20.6837 25.8021 20.8069H26.3393C26.3333 20.6704 26.2634 20.5985 26.073 20.5985H26.0684ZM26.073 21.1663C25.9849 21.1755 25.8965 21.1518 25.8247 21.0997C25.7918 21.0678 25.7663 21.029 25.7502 20.9861C25.7341 20.9431 25.7277 20.8972 25.7316 20.8515C25.729 20.8031 25.7377 20.7549 25.757 20.7105C25.7763 20.6662 25.8056 20.6269 25.8427 20.5959C25.9124 20.5524 25.9937 20.5315 26.0757 20.536C26.1591 20.5308 26.2422 20.551 26.314 20.5939C26.4005 20.6518 26.4171 20.7536 26.4171 20.8694H25.8048C25.8048 20.9919 25.8474 21.1011 26.079 21.1011C26.1828 21.0985 26.2861 21.087 26.3878 21.0664V21.129C26.2842 21.1506 26.1788 21.1631 26.073 21.1663Z" fill="#CAD7FA"/>
<path d="M27.1732 20.6383C27.0957 20.6112 27.0142 20.5977 26.9322 20.5983C26.7252 20.5983 26.6267 20.6682 26.6267 20.8499C26.6267 21.0317 26.7073 21.0982 26.8637 21.0982C26.9681 21.0933 27.0718 21.0779 27.1732 21.0523V20.6383ZM27.1865 21.1481L27.1805 21.1122C27.0749 21.1406 26.9668 21.1582 26.8577 21.1648C26.7819 21.1706 26.7067 21.1486 26.646 21.1029C26.6123 21.0705 26.5864 21.0309 26.5702 20.9871C26.5539 20.9434 26.5478 20.8964 26.5522 20.8499C26.5482 20.7983 26.5586 20.7466 26.582 20.7005C26.6055 20.6544 26.6412 20.6156 26.6853 20.5884C26.7601 20.5507 26.8431 20.5321 26.9269 20.5345C27.0106 20.5354 27.0937 20.5482 27.1738 20.5724V20.2988H27.2437V21.1481H27.1865Z" fill="#CAD7FA"/>
<path d="M28.2686 20.6003C28.1639 20.605 28.0599 20.6209 27.9585 20.6476V21.0589C28.0359 21.0872 28.1177 21.1014 28.2001 21.1009C28.4071 21.1009 28.5049 21.031 28.5049 20.8486C28.5049 20.6776 28.4244 20.6003 28.2686 20.6003ZM28.447 21.1115C28.3724 21.1483 28.29 21.1666 28.2067 21.1648C28.1162 21.1638 28.0263 21.1486 27.9405 21.1195V21.1481H27.8926V20.2988H27.9591V20.5817C28.0627 20.5553 28.1686 20.5388 28.2753 20.5325C28.3509 20.5272 28.4259 20.5489 28.487 20.5937C28.5204 20.6262 28.5461 20.6658 28.5623 20.7096C28.5784 20.7533 28.5845 20.8002 28.5801 20.8466C28.5841 20.8984 28.5738 20.9503 28.5503 20.9967C28.5269 21.043 28.4911 21.0821 28.447 21.1095" fill="#CAD7FA"/>
<path d="M28.6683 21.3808V21.3142C28.7022 21.3142 28.7348 21.3202 28.7568 21.3202C28.7973 21.3235 28.8376 21.3132 28.8715 21.2909C28.9054 21.2686 28.9309 21.2355 28.9438 21.1971L28.9665 21.1498L28.6543 20.5508H28.7348L29.0011 21.066H29.0057L29.26 20.5508H29.3392L29.0064 21.221C28.9445 21.3428 28.8786 21.3828 28.7568 21.3828C28.7273 21.3841 28.6977 21.3835 28.6683 21.3808Z" fill="#CAD7FA"/>
<path d="M30.3033 20.8071H30.071V21.0168H30.304C30.4637 21.0168 30.5243 20.9988 30.5243 20.911C30.5243 20.8231 30.4411 20.8071 30.3033 20.8071ZM30.2607 20.4677H30.071V20.6807H30.2614C30.4191 20.6807 30.4817 20.662 30.4817 20.5728C30.4817 20.4837 30.4025 20.4677 30.2607 20.4677ZM30.6201 21.0913C30.5349 21.1453 30.4318 21.1479 30.2441 21.1479H29.8906V20.3379H30.2354C30.3978 20.3379 30.497 20.3379 30.5795 20.3898C30.607 20.4062 30.6294 20.43 30.6441 20.4585C30.6588 20.4869 30.6653 20.5189 30.6627 20.5509C30.6648 20.5909 30.6533 20.6303 30.6301 20.663C30.6069 20.6956 30.5734 20.7194 30.5349 20.7306V20.7353C30.6388 20.7585 30.706 20.8118 30.706 20.9269C30.7085 20.9596 30.7018 20.9924 30.6866 21.0215C30.6714 21.0505 30.6484 21.0747 30.6201 21.0913Z" fill="#CAD7FA"/>
<path d="M31.4138 20.8966C31.3473 20.8906 31.2734 20.8872 31.1988 20.8872C31.077 20.8872 31.0344 20.9119 31.0344 20.9678C31.0344 21.0237 31.0697 21.0476 31.1629 21.0476C31.2475 21.0447 31.3316 21.0329 31.4138 21.0124V20.8966ZM31.4491 21.1475L31.4444 21.1115C31.3388 21.1415 31.23 21.1592 31.1203 21.1641C31.0571 21.1683 30.9941 21.153 30.9399 21.1202C30.9178 21.1035 30.9001 21.0815 30.8885 21.0563C30.8769 21.0311 30.8717 21.0035 30.8734 20.9758C30.8718 20.9418 30.8806 20.9082 30.8986 20.8793C30.9165 20.8504 30.9427 20.8277 30.9739 20.814C31.0455 20.7872 31.1219 20.7759 31.1982 20.7807C31.2607 20.7807 31.3446 20.7841 31.4145 20.7887V20.7807C31.4145 20.6876 31.3533 20.6569 31.1849 20.6569C31.1183 20.6569 31.0411 20.6603 30.9652 20.6676V20.5464C31.0491 20.5398 31.1436 20.5351 31.2215 20.5351C31.3176 20.5267 31.4141 20.5458 31.4997 20.5904C31.5663 20.639 31.5809 20.7062 31.5809 20.7954V21.1488L31.4491 21.1475Z" fill="#CAD7FA"/>
<path d="M32.36 21.1485V20.8157C32.36 20.7072 32.3041 20.668 32.2049 20.668C32.1225 20.6715 32.0408 20.6842 31.9613 20.7059V21.1459H31.7969V20.5468H31.93L31.936 20.5841C32.0399 20.554 32.1468 20.5359 32.2548 20.5302C32.3284 20.5245 32.4014 20.5463 32.4598 20.5914C32.484 20.6157 32.5026 20.6451 32.5141 20.6775C32.5256 20.7098 32.5298 20.7443 32.5264 20.7785V21.1439L32.36 21.1485Z" fill="#CAD7FA"/>
<path d="M32.9941 21.1646C32.9148 21.1707 32.8359 21.1483 32.7718 21.1013C32.7378 21.0692 32.7116 21.0297 32.6952 20.9858C32.6788 20.942 32.6727 20.895 32.6772 20.8484C32.6741 20.7991 32.6836 20.7497 32.7049 20.7051C32.7263 20.6605 32.7587 20.622 32.799 20.5935C32.8789 20.5487 32.97 20.5282 33.0613 20.5343C33.1279 20.5343 33.1977 20.5389 33.2716 20.5456V20.6734C33.2117 20.668 33.1385 20.6627 33.0813 20.6627C32.9228 20.6627 32.8483 20.7126 32.8483 20.8497C32.8483 20.9869 32.9042 21.0341 33.034 21.0341C33.1184 21.0315 33.2024 21.0213 33.2849 21.0035V21.1266C33.1894 21.1486 33.092 21.1613 32.9941 21.1646Z" fill="#CAD7FA"/>
<path d="M33.7803 20.6599C33.6219 20.6599 33.552 20.7099 33.552 20.8456C33.552 20.9814 33.6185 21.0393 33.7803 21.0393C33.942 21.0393 34.0059 20.9907 34.0059 20.855C34.0059 20.7192 33.9394 20.6599 33.7803 20.6599ZM34.0665 21.1019C33.9795 21.1511 33.8799 21.1731 33.7803 21.1651C33.6803 21.1729 33.5803 21.1509 33.4927 21.1019C33.4538 21.0733 33.4229 21.0351 33.4032 20.991C33.3834 20.9469 33.3755 20.8984 33.3803 20.8503C33.3756 20.802 33.3835 20.7533 33.4032 20.709C33.4229 20.6647 33.4537 20.6262 33.4927 20.5974C33.5803 20.5486 33.6804 20.5269 33.7803 20.5348C33.8798 20.5272 33.9793 20.5489 34.0665 20.5974C34.1052 20.6261 34.1358 20.6644 34.1552 20.7085C34.1747 20.7526 34.1824 20.801 34.1776 20.849C34.1824 20.8971 34.1746 20.9457 34.1551 20.99C34.1357 21.0343 34.1051 21.0728 34.0665 21.1019Z" fill="#CAD7FA"/>
<path d="M35.1386 21.165C35.0347 21.1715 34.9318 21.1416 34.8477 21.0804C34.7505 21.0006 34.7212 20.8761 34.7212 20.7423C34.7178 20.6758 34.731 20.6095 34.7597 20.5494C34.7884 20.4893 34.8317 20.4373 34.8856 20.3982C34.9902 20.3404 35.1092 20.3138 35.2284 20.3217C35.3183 20.3217 35.4101 20.3276 35.5106 20.3356V20.4814C35.4248 20.4741 35.3183 20.4681 35.2357 20.4681C35.0048 20.4681 34.9069 20.556 34.9069 20.7423C34.9069 20.9287 34.9975 21.0179 35.1678 21.0179C35.2894 21.0139 35.4103 20.9976 35.5286 20.9693V21.1144C35.4006 21.1444 35.27 21.1609 35.1386 21.165Z" fill="#CAD7FA"/>
<path d="M36.019 20.6408C35.8806 20.6408 35.8274 20.6901 35.8194 20.7813H36.2187C36.2141 20.6841 36.1575 20.6408 36.019 20.6408ZM35.9944 21.1647C35.9049 21.1728 35.8154 21.1492 35.7415 21.0981C35.7077 21.0665 35.6815 21.0276 35.6649 20.9843C35.6483 20.9411 35.6417 20.8947 35.6456 20.8485C35.643 20.8007 35.6518 20.753 35.6712 20.7092C35.6907 20.6655 35.7202 20.627 35.7575 20.5969C35.8361 20.5496 35.9275 20.5278 36.019 20.5343C36.1093 20.5288 36.1993 20.5496 36.278 20.5942C36.3738 20.6608 36.3818 20.766 36.3831 20.8891H35.8154C35.8194 20.9803 35.868 21.0389 36.0357 21.0389C36.1423 21.0365 36.2487 21.0263 36.3538 21.0083V21.1254C36.2352 21.1479 36.1151 21.161 35.9944 21.1647Z" fill="#CAD7FA"/>
<path d="M37.1256 21.1485V20.8157C37.1256 20.7072 37.0703 20.668 36.9711 20.668C36.8888 20.6715 36.8071 20.6842 36.7275 20.7059V21.1459H36.5605V20.5468H36.6969L36.7029 20.5841C36.8067 20.5539 36.9137 20.5358 37.0217 20.5302C37.0953 20.5245 37.1684 20.5463 37.2267 20.5914C37.251 20.6157 37.2695 20.6451 37.281 20.6775C37.2925 20.7098 37.2967 20.7443 37.2933 20.7785V21.1439L37.1256 21.1485Z" fill="#CAD7FA"/>
<path d="M37.7644 21.1638C37.7276 21.1674 37.6903 21.1615 37.6564 21.1465C37.6224 21.1316 37.5929 21.1082 37.5706 21.0786C37.5376 21.0243 37.5222 20.961 37.5267 20.8976V20.674H37.4062V20.5502H37.5267L37.5448 20.3691H37.6925V20.5502H37.9274V20.674H37.6925V20.8657C37.6902 20.9043 37.6958 20.9431 37.7091 20.9795C37.7192 20.9988 37.7352 21.0145 37.7546 21.0244C37.7741 21.0343 37.796 21.0379 37.8176 21.0347C37.8576 21.034 37.8974 21.03 37.9367 21.0227V21.1425C37.88 21.155 37.8224 21.1621 37.7644 21.1638Z" fill="#CAD7FA"/>
<path d="M38.0918 21.1489V20.5498H38.2249L38.2309 20.5871C38.3263 20.5549 38.4258 20.5368 38.5264 20.5332H38.5477V20.6756C38.5284 20.6756 38.5065 20.6756 38.4898 20.6756C38.4108 20.6759 38.332 20.6862 38.2555 20.7063V21.1476L38.0918 21.1489Z" fill="#CAD7FA"/>
<path d="M39.1567 20.8966C39.0868 20.8906 39.0156 20.8872 38.941 20.8872C38.8192 20.8872 38.7766 20.9119 38.7766 20.9678C38.7766 21.0237 38.8126 21.0477 38.9058 21.0477C38.9904 21.0446 39.0745 21.0328 39.1567 21.0124V20.8966ZM39.192 21.1475L39.1853 21.1135C39.0796 21.1435 38.9709 21.1611 38.8612 21.1661C38.7977 21.1703 38.7346 21.1549 38.6801 21.1222C38.6581 21.1054 38.6405 21.0834 38.6289 21.0583C38.6173 21.0331 38.612 21.0054 38.6136 20.9778C38.6119 20.9428 38.6213 20.9083 38.6402 20.8789C38.6592 20.8496 38.6869 20.8269 38.7194 20.814C38.7906 20.7878 38.8666 20.7769 38.9424 20.7821C39.0049 20.7821 39.0895 20.7854 39.1593 20.7901V20.7807C39.1593 20.6876 39.0974 20.6569 38.9297 20.6569C38.8632 20.6569 38.7853 20.6603 38.7094 20.6676V20.5465C38.7939 20.5398 38.8885 20.5351 38.9663 20.5351C39.0622 20.5267 39.1585 20.5458 39.2439 20.5904C39.3104 20.639 39.3257 20.7062 39.3257 20.7954V21.1488L39.192 21.1475Z" fill="#CAD7FA"/>
<path d="M39.5371 20.2988H39.7042V21.1481H39.5371V20.2988Z" fill="#CAD7FA"/>
</svg>
